<svg width="512" height="512" viewBox="0 0 512 512" fill="none" xmlns="http://www.w3.org/2000/svg">
<g clip-path="url(#clip0_170_6)">
<path d="M256 512C205.368 512 155.873 496.986 113.774 468.856C71.6751 440.727 38.863 400.745 19.487 353.967C0.110921 307.189 -4.95873 255.716 4.91908 206.057C14.7969 156.398 39.1785 110.783 74.9808 74.9808C110.783 39.1785 156.398 14.7969 206.057 4.91908C255.716 -4.95873 307.189 0.110921 353.967 19.487C400.745 38.863 440.727 71.6751 468.856 113.774C496.986 155.873 512 205.368 512 256C512 323.896 485.029 389.01 437.019 437.019C389.01 485.029 323.896 512 256 512ZM256 21.3334C209.587 21.3334 164.217 35.0964 125.626 60.8819C87.0356 86.6674 56.9577 123.317 39.1964 166.197C21.435 209.077 16.7878 256.26 25.8425 301.781C34.8972 347.302 57.247 389.116 90.0657 421.935C122.884 454.753 164.698 477.103 210.219 486.158C255.74 495.212 302.923 490.565 345.803 472.804C388.683 455.042 425.333 424.965 451.118 386.374C476.904 347.783 490.667 302.413 490.667 256C490.667 193.763 465.943 134.074 421.935 90.0657C377.926 46.0572 318.238 21.3334 256 21.3334Z" fill="white"/>
<path d="M256 512C172.267 512 106.667 399.573 106.667 256C106.667 112.427 172.267 0 256 0C339.733 0 405.333 112.427 405.333 256C405.333 399.573 339.733 512 256 512ZM256 21.3333C185.387 21.3333 128 126.613 128 256C128 385.387 185.387 490.667 256 490.667C326.613 490.667 384 385.387 384 256C384 126.613 326.613 21.3333 256 21.3333Z" fill="white"/>
<path d="M266.667 42.6667H245.333V501.333H266.667V42.6667Z" fill="white"/>
<path d="M362.667 245.333H10.6665V266.667H362.667V245.333Z" fill="white"/>
<path d="M501.333 245.333H394.667V266.667H501.333V245.333Z" fill="white"/>
<path d="M469.333 128H74.6665V149.333H469.333V128Z" fill="white"/>
<path d="M128 362.667H42.6665V384H128V362.667Z" fill="white"/>
<path d="M469.333 362.667H170.667V384H469.333V362.667Z" fill="white"/>
</g>
<defs>
<clipPath id="clip0_170_6">
<rect width="512" height="512" fill="white"/>
</clipPath>
</defs>
</svg>
